<svg width="0" height="0" class="hidden"><symbol xmlns="http://www.w3.org/2000/svg" viewBox="0 0 64 64" id="error-bug-1"><title>Error Bug</title><desc>A line styled icon from Orion Icon Library.</desc><path data-name="layer2" d="M58 18c0 5.2-3.5 7.4-8 8.2M62 36H50m-1.2 8C54 45.2 59.9 48 60 56M6 18c0 5.2 3.5 7.4 8 8.2M2 36h12m1.2 8C10 45.2 4 48 4 56" fill="none" stroke="#302a63" stroke-linecap="round" stroke-linejoin="round" stroke-width="2"></path><path data-name="layer1" d="M18 22.6v-2a8.6 8.6 0 0 1 8.6-8.6h10.8a8.6 8.6 0 0 1 8.6 8.6v1.9M24.2 12.4a8 8 0 0 1 15.7 0" fill="none" stroke="#5649cf" stroke-linecap="round" stroke-linejoin="round" stroke-width="2"></path><path data-name="layer1" d="M43.3 22H20.7a6.7 6.7 0 0 0-6.7 6.7v7.8c.1 10.6 6 19.3 18 21.5 12-2.1 17.9-11 18-21.6v-7.7a6.7 6.7 0 0 0-6.7-6.7zM32 22v36" fill="none" stroke="#5649cf" stroke-linecap="round" stroke-linejoin="round" stroke-width="2"></path></symbol><symbol xmlns="http://www.w3.org/2000/svg" viewBox="0 0 64 64" id="bus-1"><title>Bus</title><desc>A line styled icon from Orion Icon Library.</desc><path data-name="layer2" d="M29.1 8H35m-.9 30l10-10M20 54v6a2 2 0 0 1-2 2h-6a2 2 0 0 1-2-2v-6m44 0v6a2 2 0 0 1-2 2h-6a2 2 0 0 1-2-2v-6" fill="none" stroke="#5649cf" stroke-linecap="round" stroke-linejoin="round" stroke-width="2"></path><path data-name="layer1" d="M16.1 46H22m20.1 0H48M8 16h48M8 38h48m6-8v8M2 30v8m54 16V6a4 4 0 0 0-4-4H12a4 4 0 0 0-4 4v48zM8 38l-6-6m54 6l6-6" fill="none" stroke="#302a63" stroke-linecap="round" stroke-linejoin="round" stroke-width="2"></path></symbol><symbol xmlns="http://www.w3.org/2000/svg" viewBox="0 0 64 64" id="filing-cabinet-1"><title>Filing Cabinet</title><desc>A line styled icon from Orion Icon Library.</desc><path data-name="layer2" fill="none" stroke="#302a63" stroke-miterlimit="10" stroke-width="2" d="M2 9h60m-4 0v44a4 4 0 0 1-4 4H10a4 4 0 0 1-4-4V9m8 48v4m36-4v4" stroke-linejoin="round" stroke-linecap="round"></path><path data-name="layer1" fill="none" stroke="#5649cf" stroke-miterlimit="10" stroke-width="2" d="M14 17h36v16H14zm36 16v16H14V33m14-8h8m-8 16h8" stroke-linejoin="round" stroke-linecap="round"></path></symbol><symbol xmlns="http://www.w3.org/2000/svg" viewBox="0 0 64 64" id="chats-1"><title>Chats</title><desc>A line styled icon from Orion Icon Library.</desc><path data-name="layer2" d="M49.6 28.5C56.8 30.1 62 35.4 62 41.6a12.4 12.4 0 0 1-5.1 9.7L60 59l-10.3-4.3a21 21 0 0 1-4.7.5c-8.2 0-15.1-4.7-16.7-10.9" fill="none" stroke="#302a63" stroke-linecap="round" stroke-linejoin="round" stroke-width="2"></path><path data-name="layer1" d="M4 50l15.4-6.3a29.6 29.6 0 0 0 6.6.7c13.3 0 24-8.6 24-19.2S39.3 6 26 6 2 14.6 2 25.2C2 30.6 4.8 35.5 9.3 39z" fill="none" stroke="#5649cf" stroke-linecap="round" stroke-linejoin="round" stroke-width="2"></path></symbol><symbol xmlns="http://www.w3.org/2000/svg" viewBox="0 0 64 64" id="certificate-1"><title>Certificate</title><desc>A line styled icon from Orion Icon Library.</desc><path data-name="layer2" d="M50 46V10a8 8 0 0 0-8-8H9.2c4.4 0 6.8 3.6 6.8 8v44a8 8 0 0 0 8 8" fill="none" stroke="#302a63" stroke-linecap="round" stroke-linejoin="round" stroke-width="2"></path><path data-name="layer2" d="M54 46H24a8 8 0 0 1 0 16h30a8 8 0 0 0 0-16zM9.2 2C4.8 2 2 5.6 2 10h14" fill="none" stroke="#302a63" stroke-linecap="round" stroke-linejoin="round" stroke-width="2"></path><path data-name="layer1" fill="none" stroke="#5649cf" stroke-linecap="round" stroke-linejoin="round" stroke-width="2" d="M26 14h14M26 24h14M26 34h14"></path></symbol></svg>